<svg width="1186" height="224" viewBox="0 0 1186 224" fill="none" xmlns="http://www.w3.org/2000/svg">
  <path d="M0.685547 118.621L115.627 56.585L132.814 74.8467L45.5342 118.621L132.814 162.664L115.627 180.926L0.685547 118.621ZM556.325 47.7227H536.721V28.1182H594.997V47.7227H576.735V162.127H596.34V182H538.332V162.127H556.325V47.7227ZM652.468 161.858V137.957H632.058V182L716.652 181.731V116.741L653.542 80.2178V47.9912H697.048V71.8926H717.189V28.1182H632.058V99.5537L695.705 136.346V161.858H652.468ZM846.364 182H824.343V47.1855H781.643V182H761.232V28.1182H909.743V182H888.259V47.1855H846.364V182ZM1031.67 0.725586L985.476 218.523L1005.35 223.089L1051.54 5.29102L1031.67 0.725586ZM1185.28 118.621L1070.34 56.585L1053.15 74.8467L1140.43 118.621L1053.15 162.664L1070.34 180.926L1185.28 118.621Z" fill="black"/>
  <path d="M222.512 47.9912H179.006V162.664H240.505V182H157.521V28.1182H242.653V71.8926H222.512V47.9912ZM307.106 161.053H350.344V47.4541H307.106V161.053ZM286.696 182V28.1182H371.828V182H286.696ZM436.281 161.053H471.462L476.833 154.607V55.5107L471.462 47.4541H436.281V161.053ZM415.871 182V28.1182H476.296L501.003 63.8359V148.968L473.61 182H415.871Z" fill="#C50000"/>
</svg>
